<?xml version="1.0" encoding="iso-8859-1"?>
<!-- Generator: Adobe Illustrator 16.0.0, SVG Export Plug-In . SVG Version: 6.00 Build 0)  -->
<!DOCTYPE svg PUBLIC "-//W3C//DTD SVG 1.1//EN" "http://www.w3.org/Graphics/SVG/1.1/DTD/svg11.dtd">
<svg version="1.1" id="Capa_1" xmlns="http://www.w3.org/2000/svg" xmlns:xlink="http://www.w3.org/1999/xlink" x="0px" y="0px"
	 width="425.214px" height="425.214px" viewBox="0 0 425.214 425.214" style="enable-background:new 0 0 425.214 425.214;"
	 xml:space="preserve">
<g>
	<path style="fill:#030303;" d="M256.398,115.624v-3.431l99.773-99.774l-8.279-8.28l-85.919,85.919
		c5.781-8.817,9.166-19.344,9.166-30.663c0-31.006-25.228-56.228-56.23-56.228c-31.003,0-56.229,25.225-56.229,56.228
		c0,12.091,3.911,23.232,10.447,32.401L77.322,0l-8.28,8.279l103.147,103.145v4.206h0.772l2.067,158.617l0,0l-31.372,66.844h40.452
		l-0.208,84.123h60.789v-1.292v-82.831h36.869l-25.159-69.451V115.624z M170.397,59.39c0-24.544,19.967-44.518,44.517-44.518
		c24.548,0,44.515,19.973,44.515,44.518s-19.967,44.518-44.515,44.518C190.364,103.908,170.397,83.94,170.397,59.39z
		 M209.674,412.451l-13.292-0.24v-71.12h13.292V412.451z M232.978,412.211l-11.596,0.24v-71.36h11.596V412.211z M264.861,329.381
		h-20.173h-11.711h-11.596h-11.708h-13.292H184.14h-23.79l24.322-52.932v-11.711V115.63h60.017v149.108v11.711l11.71,29.562
		L264.861,329.381z"/>
</g>
<g>
</g>
<g>
</g>
<g>
</g>
<g>
</g>
<g>
</g>
<g>
</g>
<g>
</g>
<g>
</g>
<g>
</g>
<g>
</g>
<g>
</g>
<g>
</g>
<g>
</g>
<g>
</g>
<g>
</g>
</svg>
