<?xml version="1.0" encoding="iso-8859-1"?>
<!-- Generator: Adobe Illustrator 17.1.0, SVG Export Plug-In . SVG Version: 6.00 Build 0)  -->
<!DOCTYPE svg PUBLIC "-//W3C//DTD SVG 1.1//EN" "http://www.w3.org/Graphics/SVG/1.1/DTD/svg11.dtd">
<svg version="1.1" id="Capa_1" xmlns="http://www.w3.org/2000/svg" xmlns:xlink="http://www.w3.org/1999/xlink" x="0px" y="0px"
	 viewBox="0 0 214.333 214.333" style="enable-background:new 0 0 214.333 214.333;" xml:space="preserve">
<path d="M192.841,170.166H22.255c-1.381,0-2.5-1.119-2.5-2.5V81.995L0.328,47.904c-0.441-0.774-0.437-1.724,0.01-2.494
	c0.448-0.771,1.271-1.244,2.162-1.244h111.633c0.898,0,1.728,0.482,2.172,1.262l17.54,30.78l16.843-30.743
	c0.438-0.801,1.279-1.299,2.192-1.299h58.952c0.883,0,1.701,0.466,2.151,1.226c0.45,0.76,0.466,1.701,0.042,2.475l-18.685,34.105
	v85.693C195.341,169.047,194.222,170.166,192.841,170.166z M136.388,165.166h53.953V83.833h-53.953V165.166z M90,165.166h41.388
	V83.833H90V165.166z M68.333,165.166H85V83.833H68.333V165.166z M24.755,165.166h38.578V83.833H24.755V165.166z M138.108,78.833
	h53.251l16.253-29.667h-53.251L138.108,78.833z M88.942,78.833h40.644l-16.905-29.667H71.785L88.942,78.833z M67.275,78.833h15.891
	L66.057,49.249H50.166L67.275,78.833z M23.708,78.833h37.791L44.343,49.166H6.802L23.708,78.833z"/>
<g>
</g>
<g>
</g>
<g>
</g>
<g>
</g>
<g>
</g>
<g>
</g>
<g>
</g>
<g>
</g>
<g>
</g>
<g>
</g>
<g>
</g>
<g>
</g>
<g>
</g>
<g>
</g>
<g>
</g>
</svg>
