<?xml version="1.0" encoding="iso-8859-1"?>
<!-- Generator: Adobe Illustrator 19.0.0, SVG Export Plug-In . SVG Version: 6.00 Build 0)  -->
<svg version="1.1" id="Layer_1" xmlns="http://www.w3.org/2000/svg" xmlns:xlink="http://www.w3.org/1999/xlink" x="0px" y="0px"
	 viewBox="0 0 512 512" style="enable-background:new 0 0 512 512;" xml:space="preserve">
<g>
	<g>
		<path d="M256,0C114.843,0,0,114.843,0,256c0,141.157,114.843,256,256,256s256-114.843,256-256C512,114.843,397.157,0,256,0z
			 M256,493.037C125.296,493.037,18.963,386.704,18.963,256C18.963,125.296,125.296,18.963,256,18.963S493.037,125.296,493.037,256
			C493.037,386.704,386.704,493.037,256,493.037z"/>
	</g>
</g>
<g>
	<g>
		<path d="M420.143,303.847c-4.935-1.745-10.352,0.843-12.092,5.787C385.357,373.963,324.255,417.185,256,417.185
			c-88.88,0-161.185-72.306-161.185-161.185c0-23.977,5.134-47.046,15.264-68.56c2.232-4.736,0.199-10.384-4.542-12.616
			c-4.736-2.227-10.384-0.204-12.616,4.542c-11.324,24.055-17.07,49.842-17.07,76.634c0,99.333,80.815,180.148,180.148,180.148
			c76.278,0,144.569-48.306,169.931-120.208C427.676,311.005,425.083,305.588,420.143,303.847z"/>
	</g>
</g>
<g>
	<g>
		<path d="M180.148,123.259c-26.139,0-47.407,21.269-47.407,47.407c0,5.236,4.245,9.481,9.482,9.481s9.482-4.245,9.482-9.481
			c0-15.685,12.759-28.444,28.444-28.444c15.685,0,28.444,12.759,28.444,28.444c0,5.236,4.245,9.481,9.482,9.481
			s9.481-4.245,9.481-9.481C227.556,144.528,206.287,123.259,180.148,123.259z"/>
	</g>
</g>
<g>
	<g>
		<path d="M331.852,123.259c-26.139,0-47.407,21.269-47.407,47.407c0,5.236,4.245,9.481,9.481,9.481s9.482-4.245,9.482-9.481
			c0-15.685,12.759-28.444,28.444-28.444c15.685,0,28.444,12.759,28.444,28.444c0,5.236,4.245,9.481,9.481,9.481
			s9.482-4.245,9.482-9.481C379.259,144.528,357.991,123.259,331.852,123.259z"/>
	</g>
</g>
<g>
	<g>
		<path d="M256,218.074c-5.236,0-9.482,4.246-9.482,9.481v56.889c0,5.236,4.245,9.481,9.482,9.481s9.482-4.245,9.482-9.481v-56.889
			C265.482,222.32,261.236,218.074,256,218.074z"/>
	</g>
</g>
<g>
</g>
<g>
</g>
<g>
</g>
<g>
</g>
<g>
</g>
<g>
</g>
<g>
</g>
<g>
</g>
<g>
</g>
<g>
</g>
<g>
</g>
<g>
</g>
<g>
</g>
<g>
</g>
<g>
</g>
</svg>
